<?xml version="1.0" encoding="UTF-8"?>
<svg version="1.1" xmlns="http://www.w3.org/2000/svg" width="500" height="500">
<path d="M0 0 C1.27444977 -0.01872414 1.27444977 -0.01872414 2.574646 -0.03782654 C21.88284893 -0.26659724 40.10074094 0.07991233 58.84765625 5.2734375 C59.5938623 5.47630371 60.34006836 5.67916992 61.10888672 5.88818359 C71.05279624 8.68425118 80.49991425 12.92753767 89.84765625 17.2734375 C90.51974121 17.58152344 91.19182617 17.88960937 91.88427734 18.20703125 C111.09262541 27.08162868 126.7939936 40.15936498 141.78515625 54.9609375 C142.29965332 55.46608887 142.81415039 55.97124023 143.34423828 56.49169922 C146.84765625 60.02675625 146.84765625 60.02675625 146.84765625 62.2734375 C147.83765625 62.6034375 148.82765625 62.9334375 149.84765625 63.2734375 C151.57372106 65.23939607 153.15831661 67.185611 154.72265625 69.2734375 C155.1724585 69.86793701 155.62226074 70.46243652 156.08569336 71.07495117 C158.87243726 74.81541451 161.36819111 78.56851564 163.51171875 82.71875 C164.60645582 84.81219457 165.74688249 86.84923026 166.93359375 88.890625 C171.89645576 97.44962743 176.30347647 106.01091724 179.84765625 115.2734375 C180.21238037 116.22597412 180.21238037 116.22597412 180.58447266 117.19775391 C184.70112451 128.16211776 187.36936073 139.339329 189.75585938 150.7956543 C192.11041052 162.23817967 192.11041052 162.23817967 196.84765625 172.8359375 C211.79107816 201.52043703 201.95418441 247.8570686 193.58984375 276.75390625 C192.45589834 280.31719828 191.20767797 283.7906519 189.84765625 287.2734375 C189.38230469 288.49933594 188.91695313 289.72523438 188.4375 290.98828125 C180.7862704 310.2132676 168.20335833 331.21236135 152.84765625 345.2734375 C151.17821412 346.93732408 149.51187014 348.60432166 147.84765625 350.2734375 C120.64454011 377.3967791 85.58694587 393.9822558 47.84765625 400.2734375 C46.40374512 400.5350769 46.40374512 400.5350769 44.93066406 400.80200195 C36.69900334 402.20873353 28.69111882 402.62227237 20.34765625 402.5859375 C19.04046631 402.58247314 17.73327637 402.57900879 16.38647461 402.57543945 C5.31663668 402.45253933 -5.28585483 401.29108796 -16.15234375 399.2734375 C-17.48015155 399.0527703 -18.80826214 398.83391456 -20.13671875 398.6171875 C-40.9498121 394.92879121 -67.86308887 386.56269238 -83.15234375 371.2734375 C-83.15234375 369.9534375 -83.15234375 368.6334375 -83.15234375 367.2734375 C-83.67699219 367.02980469 -84.20164062 366.78617187 -84.7421875 366.53515625 C-87.85606022 364.90504136 -90.77328373 363.00290019 -93.71484375 361.0859375 C-98.06046457 358.26312174 -102.42605321 355.48912707 -106.83984375 352.7734375 C-115.59160012 347.17282373 -123.16008085 340.43458229 -130.52734375 333.1484375 C-131.11040283 332.57472412 -131.69346191 332.00101074 -132.29418945 331.40991211 C-142.09916161 321.53146272 -142.09916161 321.53146272 -142.24609375 315.29296875 C-142.20226562 314.62217285 -142.1584375 313.95137695 -142.11328125 313.26025391 C-142.18215751 309.75703498 -143.97563609 306.93712252 -145.65234375 303.9609375 C-149.37211757 296.99275691 -152.50939992 289.89895257 -155.44921875 282.5690918 C-156.99859401 278.7651666 -158.41463139 275.40706518 -161.15234375 272.2734375 C-163.79234375 272.6034375 -166.43234375 272.9334375 -169.15234375 273.2734375 C-173.78689553 266.81255812 -175.90798235 259.82678669 -178.15234375 252.2734375 C-178.51585937 251.05527344 -178.879375 249.83710938 -179.25390625 248.58203125 C-190.78681234 206.36807345 -185.5627017 162.68282057 -170.15234375 122.2734375 C-169.81203125 121.3040625 -169.47171875 120.3346875 -169.12109375 119.3359375 C-163.53960853 104.45197692 -154.14768129 89.62061916 -144.15234375 77.2734375 C-143.53770264 76.51087646 -143.53770264 76.51087646 -142.91064453 75.73291016 C-130.92800232 60.99005047 -117.6122796 47.36659692 -102.15234375 36.2734375 C-101.55599121 35.84337402 -100.95963867 35.41331055 -100.34521484 34.97021484 C-91.09397014 28.37412408 -81.48236838 22.98603998 -71.15234375 18.2734375 C-70.415 17.93570313 -69.67765625 17.59796875 -68.91796875 17.25 C-47.16811909 7.4107823 -24.00941063 0.32682214 0 0 Z " fill="#5E18EB" transform="translate(252.15234375,63.7265625)"/>
<path d="M0 0 C1.27444977 -0.01872414 1.27444977 -0.01872414 2.574646 -0.03782654 C21.88284893 -0.26659724 40.10074094 0.07991233 58.84765625 5.2734375 C59.5938623 5.47630371 60.34006836 5.67916992 61.10888672 5.88818359 C71.05279624 8.68425118 80.49991425 12.92753767 89.84765625 17.2734375 C90.51974121 17.58152344 91.19182617 17.88960937 91.88427734 18.20703125 C111.09262541 27.08162868 126.7939936 40.15936498 141.78515625 54.9609375 C142.29965332 55.46608887 142.81415039 55.97124023 143.34423828 56.49169922 C146.84765625 60.02675625 146.84765625 60.02675625 146.84765625 62.2734375 C147.83765625 62.6034375 148.82765625 62.9334375 149.84765625 63.2734375 C151.57372106 65.23939607 153.15831661 67.185611 154.72265625 69.2734375 C155.1724585 69.86793701 155.62226074 70.46243652 156.08569336 71.07495117 C158.87243726 74.81541451 161.36819111 78.56851564 163.51171875 82.71875 C164.60645582 84.81219457 165.74688249 86.84923026 166.93359375 88.890625 C171.89645576 97.44962743 176.30347647 106.01091724 179.84765625 115.2734375 C180.21238037 116.22597412 180.21238037 116.22597412 180.58447266 117.19775391 C184.70112451 128.16211776 187.36936073 139.339329 189.75585938 150.7956543 C192.11041052 162.23817967 192.11041052 162.23817967 196.84765625 172.8359375 C211.79107816 201.52043703 201.95418441 247.8570686 193.58984375 276.75390625 C192.45589834 280.31719828 191.20767797 283.7906519 189.84765625 287.2734375 C189.38230469 288.49933594 188.91695313 289.72523438 188.4375 290.98828125 C180.7862704 310.2132676 168.20335833 331.21236135 152.84765625 345.2734375 C151.17821412 346.93732408 149.51187014 348.60432166 147.84765625 350.2734375 C120.64454011 377.3967791 85.58694587 393.9822558 47.84765625 400.2734375 C46.40374512 400.5350769 46.40374512 400.5350769 44.93066406 400.80200195 C36.69900334 402.20873353 28.69111882 402.62227237 20.34765625 402.5859375 C19.04046631 402.58247314 17.73327637 402.57900879 16.38647461 402.57543945 C5.31663668 402.45253933 -5.28585483 401.29108796 -16.15234375 399.2734375 C-17.48015155 399.0527703 -18.80826214 398.83391456 -20.13671875 398.6171875 C-40.9498121 394.92879121 -67.86308887 386.56269238 -83.15234375 371.2734375 C-83.15234375 369.9534375 -83.15234375 368.6334375 -83.15234375 367.2734375 C-83.67699219 367.02980469 -84.20164062 366.78617187 -84.7421875 366.53515625 C-87.85606022 364.90504136 -90.77328373 363.00290019 -93.71484375 361.0859375 C-98.06046457 358.26312174 -102.42605321 355.48912707 -106.83984375 352.7734375 C-115.59160012 347.17282373 -123.16008085 340.43458229 -130.52734375 333.1484375 C-131.11040283 332.57472412 -131.69346191 332.00101074 -132.29418945 331.40991211 C-142.09916161 321.53146272 -142.09916161 321.53146272 -142.24609375 315.29296875 C-142.20226562 314.62217285 -142.1584375 313.95137695 -142.11328125 313.26025391 C-142.18215751 309.75703498 -143.97563609 306.93712252 -145.65234375 303.9609375 C-149.37211757 296.99275691 -152.50939992 289.89895257 -155.44921875 282.5690918 C-156.99859401 278.7651666 -158.41463139 275.40706518 -161.15234375 272.2734375 C-163.79234375 272.6034375 -166.43234375 272.9334375 -169.15234375 273.2734375 C-173.78689553 266.81255812 -175.90798235 259.82678669 -178.15234375 252.2734375 C-178.51585937 251.05527344 -178.879375 249.83710938 -179.25390625 248.58203125 C-190.78681234 206.36807345 -185.5627017 162.68282057 -170.15234375 122.2734375 C-169.81203125 121.3040625 -169.47171875 120.3346875 -169.12109375 119.3359375 C-163.53960853 104.45197692 -154.14768129 89.62061916 -144.15234375 77.2734375 C-143.53770264 76.51087646 -143.53770264 76.51087646 -142.91064453 75.73291016 C-130.92800232 60.99005047 -117.6122796 47.36659692 -102.15234375 36.2734375 C-101.55599121 35.84337402 -100.95963867 35.41331055 -100.34521484 34.97021484 C-91.09397014 28.37412408 -81.48236838 22.98603998 -71.15234375 18.2734375 C-70.415 17.93570313 -69.67765625 17.59796875 -68.91796875 17.25 C-47.16811909 7.4107823 -24.00941063 0.32682214 0 0 Z M-80.15234375 43.2734375 C-81.09376221 43.7988916 -81.09376221 43.7988916 -82.05419922 44.33496094 C-119.97308945 65.60164011 -148.74725795 100.89252047 -162.15234375 142.2734375 C-162.49007812 143.29179687 -162.8278125 144.31015625 -163.17578125 145.359375 C-168.15811632 161.43021518 -169.43206821 177.28598972 -169.46484375 194.0234375 C-169.46842896 194.7580722 -169.47201416 195.49270691 -169.47570801 196.24960327 C-169.51724469 212.08060142 -167.79969255 227.0801818 -163.15234375 242.2734375 C-162.9409375 242.97726562 -162.72953125 243.68109375 -162.51171875 244.40625 C-149.39513701 287.56895504 -120.00623018 324.78801092 -80.140625 346.20703125 C-40.6855388 366.87489968 5.69462746 374.06929732 48.8046875 360.9140625 C62.08202746 356.75061364 74.62763355 351.95520517 86.84765625 345.2734375 C87.915 344.69722656 88.98234375 344.12101562 90.08203125 343.52734375 C102.29883174 336.67517456 112.77859824 327.92335757 122.84765625 318.2734375 C123.61408447 317.54785645 123.61408447 317.54785645 124.39599609 316.80761719 C140.77492254 301.24532583 153.22663728 282.1437644 161.84765625 261.2734375 C162.14655762 260.55607422 162.44545898 259.83871094 162.75341797 259.09960938 C167.39425695 247.775283 170.45511189 236.53877542 172.47314453 224.47460938 C172.79304959 222.59438509 173.15761912 220.72185193 173.53125 218.8515625 C181.06383591 177.08467237 169.13983229 132.30690275 145.69140625 97.56005859 C139.02584871 87.96964052 131.09406517 79.50665217 122.84765625 71.2734375 C122.22246094 70.60183594 121.59726562 69.93023437 120.953125 69.23828125 C106.45430832 53.91264814 88.01002672 43.62188425 68.84765625 35.2734375 C67.88730469 34.83257812 66.92695313 34.39171875 65.9375 33.9375 C20.32736355 13.67996968 -37.33037076 18.7937183 -80.15234375 43.2734375 Z " fill="#F8F6F8" transform="translate(252.15234375,63.7265625)"/>
<path d="M0 0 C14.03844459 11.5253897 18.53517982 42.14300512 21.95947266 58.67529297 C24.28878283 70.04026927 24.28878283 70.04026927 29 80.5625 C43.94342191 109.24699953 34.10652816 155.5836311 25.7421875 184.48046875 C24.60824209 188.04376078 23.36002172 191.5172144 22 195 C21.53464844 196.22589844 21.06929688 197.45179688 20.58984375 198.71484375 C12.93861415 217.9398301 0.35570208 238.93892385 -15 253 C-16.66944213 254.66388658 -18.33578611 256.33088416 -20 258 C-47.20311614 285.1233416 -82.26071038 301.7088183 -120 308 C-121.44391113 308.2616394 -121.44391113 308.2616394 -122.91699219 308.52856445 C-131.14865291 309.93529603 -139.15653743 310.34883487 -147.5 310.3125 C-148.80718994 310.30903564 -150.11437988 310.30557129 -151.46118164 310.30200195 C-162.53101957 310.17910183 -173.13351108 309.01765046 -184 307 C-185.3278078 306.7793328 -186.65591839 306.56047706 -187.984375 306.34375 C-208.79746835 302.65535371 -235.71074512 294.28925488 -251 279 C-251 277.68 -251 276.36 -251 275 C-251.76763672 274.64421875 -251.76763672 274.64421875 -252.55078125 274.28125 C-255.88446292 272.53731445 -259.02127728 270.52871589 -262.1875 268.5 C-262.82880859 268.09652344 -263.47011719 267.69304687 -264.13085938 267.27734375 C-268.88125364 264.23749272 -268.88125364 264.23749272 -270 262 C-266.32994382 263.34098207 -262.9925046 265.06707514 -259.58422852 266.96972656 C-234.96321988 280.6169812 -208.08691914 288.04038698 -180 289 C-178.62207275 289.05099854 -178.62207275 289.05099854 -177.21630859 289.10302734 C-133.05173504 290.52582718 -91.09785609 275.50906982 -56 249 C-55.06414062 248.3090625 -54.12828125 247.618125 -53.1640625 246.90625 C-18.9263924 220.35888733 2.50323246 183.85837731 15 143 C15.39131104 141.7948877 15.39131104 141.7948877 15.79052734 140.56542969 C20.89124869 123.7572123 21.58429792 106.06114391 21.5 88.625 C21.49823761 87.64208984 21.49647522 86.65917969 21.49465942 85.64648438 C21.43572603 70.87624586 20.54031992 57.14778416 16 43 C15.47458836 41.22545926 14.9498644 39.45071479 14.42578125 37.67578125 C10.82371142 25.92272372 6.0229521 14.80461366 0.71508789 3.72973633 C0 2 0 2 0 0 Z " fill="#FBF7F6" transform="translate(420,156)"/>
<path d="M0 0 C1.27444977 -0.01872414 1.27444977 -0.01872414 2.574646 -0.03782654 C21.88284893 -0.26659724 40.10074094 0.07991233 58.84765625 5.2734375 C59.5938623 5.47630371 60.34006836 5.67916992 61.10888672 5.88818359 C71.05279624 8.68425118 80.49991425 12.92753767 89.84765625 17.2734375 C90.51974121 17.58152344 91.19182617 17.88960937 91.88427734 18.20703125 C111.09262541 27.08162868 126.7939936 40.15936498 141.78515625 54.9609375 C142.29965332 55.46608887 142.81415039 55.97124023 143.34423828 56.49169922 C146.84765625 60.02675625 146.84765625 60.02675625 146.84765625 62.2734375 C147.83765625 62.6034375 148.82765625 62.9334375 149.84765625 63.2734375 C151.57362183 65.23928304 153.15798121 67.18603666 154.72265625 69.2734375 C155.16810791 69.85996094 155.61355957 70.44648438 156.07250977 71.05078125 C159.45569478 75.57903475 162.26480053 80.24647451 164.84765625 85.2734375 C165.36328125 86.0778125 165.87890625 86.8821875 166.41015625 87.7109375 C167.70585367 90.02065898 168.66372839 92.22374465 169.62890625 94.68359375 C171.13739228 98.49832616 172.67833865 102.29679115 174.25 106.0859375 C179.27943609 118.30686881 183.91386154 130.36629305 186.84765625 143.2734375 C187.10514648 144.29002441 187.36263672 145.30661133 187.62792969 146.35400391 C190.03584804 156.74224812 190.30826014 166.84013013 190.23876953 177.47753906 C190.22279363 180.3735346 190.23864378 183.26811103 190.2578125 186.1640625 C190.28006037 203.77427941 188.49290466 220.9057396 183.22265625 237.7734375 C182.87638184 238.90579834 182.53010742 240.03815918 182.17333984 241.20483398 C168.65120465 284.21248412 141.43053759 322.89973825 103.84765625 348.2734375 C103.22922852 348.69882812 102.61080078 349.12421875 101.97363281 349.5625 C61.05327978 377.45593458 10.89856075 388.23366528 -37.88671875 379.80078125 C-57.95623708 375.88548504 -80.19023399 368.82645997 -97.1953125 357.19140625 C-99.64052243 355.60541144 -101.4240578 354.74443192 -104.1171875 353.8203125 C-108.17428626 352.38420542 -111.39086225 350.22859003 -114.71484375 347.5234375 C-115.29983643 347.05607178 -115.8848291 346.58870605 -116.48754883 346.10717773 C-139.53499063 327.24518797 -139.53499063 327.24518797 -140.4453125 319.9140625 C-140.41050781 319.12515625 -140.37570313 318.33625 -140.33984375 317.5234375 C-140.31277344 316.72421875 -140.28570312 315.925 -140.2578125 315.1015625 C-140.22300781 314.49828125 -140.18820313 313.895 -140.15234375 313.2734375 C-135.86003721 313.56732515 -133.9892177 315.09568652 -131.19335938 318.28515625 C-130.74669922 318.81753906 -130.30003906 319.34992188 -129.83984375 319.8984375 C-109.45863917 343.75199545 -79.30164845 360.44659813 -49.15234375 368.2734375 C-48.14816406 368.54671875 -47.14398438 368.82 -46.109375 369.1015625 C-13.7481887 377.30240971 21.39453277 374.94531592 52.84765625 364.2734375 C54.72324219 363.66435547 54.72324219 363.66435547 56.63671875 363.04296875 C79.81276004 355.17823919 101.1033938 342.03372976 118.84765625 325.2734375 C120.13576327 324.18587408 121.42735159 323.10241837 122.72265625 322.0234375 C143.23583699 303.97677148 157.85128636 280.19019654 168.10693359 255.08154297 C168.79144406 253.41065158 169.50014214 251.74972404 170.2109375 250.08984375 C182.98711312 219.03938597 186.64331807 179.90722528 178.84765625 147.2734375 C178.57382897 145.92143591 178.30439805 144.56853748 178.0390625 143.21484375 C171.40264037 110.6918037 154.21134353 82.35740841 131.84765625 58.2734375 C131.30882812 57.68046875 130.77 57.0875 130.21484375 56.4765625 C120.66076191 46.39436558 108.74045377 38.34074393 96.84765625 31.2734375 C96.27499023 30.9321582 95.70232422 30.59087891 95.11230469 30.23925781 C79.22164912 20.92588985 61.88859045 14.78862983 43.84765625 11.2734375 C42.78289062 11.06074219 41.718125 10.84804687 40.62109375 10.62890625 C33.06882051 9.24399071 25.51421245 8.57343318 17.84765625 8.2734375 C16.54634766 8.21446289 16.54634766 8.21446289 15.21875 8.15429688 C-30.61626154 6.31466036 -76.29192373 23.21985852 -110.40234375 53.8984375 C-111.61470703 55.01798828 -111.61470703 55.01798828 -112.8515625 56.16015625 C-114.93019609 58.06939355 -117.05655121 59.89320394 -119.21484375 61.7109375 C-146.26605499 85.4010764 -164.43714329 121.75846515 -172.40234375 156.3984375 C-172.62929932 157.38106567 -172.62929932 157.38106567 -172.86083984 158.38354492 C-175.6737018 171.54996374 -176.56255021 184.78311907 -176.52734375 198.2109375 C-176.52702652 199.34156113 -176.52702652 199.34156113 -176.52670288 200.49502563 C-176.46728323 221.89145127 -173.14910396 241.99575339 -165.33984375 261.9609375 C-164.24406416 265.01758583 -163.85192982 267.06902223 -164.15234375 270.2734375 C-166.40234375 271.0234375 -166.40234375 271.0234375 -169.15234375 271.2734375 C-175.00118295 266.73945362 -176.16432095 259.07041333 -178.15234375 252.2734375 C-178.51585937 251.05269531 -178.879375 249.83195313 -179.25390625 248.57421875 C-190.8062659 206.37724095 -185.55661637 162.66686347 -170.15234375 122.2734375 C-169.81203125 121.3040625 -169.47171875 120.3346875 -169.12109375 119.3359375 C-163.53960853 104.45197692 -154.14768129 89.62061916 -144.15234375 77.2734375 C-143.53770264 76.51087646 -143.53770264 76.51087646 -142.91064453 75.73291016 C-130.92800232 60.99005047 -117.6122796 47.36659692 -102.15234375 36.2734375 C-101.55599121 35.84337402 -100.95963867 35.41331055 -100.34521484 34.97021484 C-91.09397014 28.37412408 -81.48236838 22.98603998 -71.15234375 18.2734375 C-70.415 17.93570313 -69.67765625 17.59796875 -68.91796875 17.25 C-47.16811909 7.4107823 -24.00941063 0.32682214 0 0 Z " fill="#21172E" transform="translate(252.15234375,63.7265625)"/>
<path d="M0 0 C0.375 2.1875 0.375 2.1875 0 5 C-3.46411342 8.82875694 -5.78848272 10.28468069 -10.9609375 10.70703125 C-12.76499446 10.7662886 -14.57000729 10.80091303 -16.375 10.8125 C-17.30183594 10.83763672 -18.22867188 10.86277344 -19.18359375 10.88867188 C-21.45615641 10.94724308 -23.72680678 10.98374013 -26 11 C-24.77216797 11.50466797 -24.77216797 11.50466797 -23.51953125 12.01953125 C-21 14 -21 14 -20.51171875 17.57421875 C-20.54485752 18.94616376 -20.60436405 20.3176753 -20.6875 21.6875 C-20.71005859 22.38939453 -20.73261719 23.09128906 -20.75585938 23.81445312 C-20.81468353 25.5438833 -20.90436611 27.27221438 -21 29 C-19.91332031 28.80083984 -19.91332031 28.80083984 -18.8046875 28.59765625 C-16.81810975 28.23477471 -14.83111496 27.87417022 -12.84375 27.515625 C-10.68570963 27.12433197 -8.52981683 26.72117216 -6.375 26.3125 C-5.59125 26.209375 -4.8075 26.10625 -4 26 C-3 27 -3 27 -2.9375 29.5625 C-2.958125 30.366875 -2.97875 31.17125 -3 32 C-9.4169285 35.50014282 -14.7345633 35.24490236 -22 35 C-21.67 41.27 -21.34 47.54 -21 54 C-19.60265625 53.4946875 -18.2053125 52.989375 -16.765625 52.46875 C-14.92720114 51.81217005 -13.08865294 51.15593817 -11.25 50.5 C-10.32960937 50.16613281 -9.40921875 49.83226562 -8.4609375 49.48828125 C-7.12675781 49.01455078 -7.12675781 49.01455078 -5.765625 48.53125 C-4.94868164 48.23798828 -4.13173828 47.94472656 -3.29003906 47.64257812 C-1 47 -1 47 3 47 C4.88758459 44.98192176 4.88758459 44.98192176 6.375 42.3125 C7.19097656 41.00732422 7.19097656 41.00732422 8.0234375 39.67578125 C9.21391068 37.09568288 9.21391068 37.09568288 8.609375 34.65234375 C6.20900651 30.69639666 3.0915984 27.55577142 -0.125 24.25 C-1.42128635 22.90297837 -2.71567034 21.55412249 -4.0078125 20.203125 C-4.58160645 19.61176758 -5.15540039 19.02041016 -5.74658203 18.41113281 C-7 17 -7 17 -7 16 C-0.65172764 15.49213821 2.86531273 15.86992545 8 20 C9.28691042 20.92333207 10.57865294 21.83996436 11.875 22.75 C12.90625 23.4925 13.9375 24.235 15 25 C15.39832031 24.30132812 15.79664063 23.60265625 16.20703125 22.8828125 C16.73683594 21.97273438 17.26664063 21.06265625 17.8125 20.125 C18.33457031 19.22007812 18.85664063 18.31515625 19.39453125 17.3828125 C21 15 21 15 24 13 C25.9375 12.76953125 25.9375 12.76953125 28 12.8125 C28.680625 12.81894531 29.36125 12.82539063 30.0625 12.83203125 C32 13 32 13 35 14 C34.505 11.525 34.505 11.525 34 9 C43.41002278 8.6309795 43.41002278 8.6309795 48 11 C48 12.98 48 14.96 48 17 C48.66 17 49.32 17 50 17 C50.20625 16.443125 50.4125 15.88625 50.625 15.3125 C52.82516669 11.61221966 56.1366872 8.9316564 60 7 C65.48474857 6.34183017 68.79653113 7.37721515 73.19921875 10.48046875 C77.51564579 14.12274666 78.77646706 16.95327648 79.375 22.43359375 C79.65202552 31.03004201 79.25601676 39.16911842 73.3515625 45.87109375 C68.44616864 50.33735847 63.79612683 52.57185771 57.00390625 52.46875 C53.23344392 51.58677051 51.41346547 48.89615856 49 46 C47.85860894 49.64158099 47.86682961 53.07576753 47.875 56.875 C47.87242187 58.06867188 47.86984375 59.26234375 47.8671875 60.4921875 C47.99066604 63.75347351 48.38336743 66.79938334 49 70 C44.97451544 72.68365637 41.72674036 72.78494605 37 72 C34.4375 70.1875 34.4375 70.1875 33 67 C32.69397449 63.30694636 32.76700778 59.69551551 33 56 C32.22785156 55.71511719 31.45570313 55.43023437 30.66015625 55.13671875 C28 54 28 54 25.4375 51.8125 C23.23838925 49.81681471 23.23838925 49.81681471 21 49.9375 C18.14891995 51.45213628 16.24461145 53.69927326 14 56 C11.01784691 57.82068294 8.65193794 58.25745834 5.1875 58.4375 C0.49217077 58.81782858 -2.77355692 59.97130732 -7 62 C-11.89617091 63.50269694 -16.92167534 63.30282743 -22 63.375 C-22.99773437 63.41238281 -23.99546875 63.44976562 -25.0234375 63.48828125 C-32.24532945 63.57540863 -32.24532945 63.57540863 -35.6640625 60.96875 C-37.32786931 57.27140153 -37.51963974 54.09966396 -37.375 50.125 C-37.36138428 49.37758545 -37.34776855 48.6301709 -37.33374023 47.86010742 C-37.16338769 41.73324536 -36.42838836 35.73099613 -35.51171875 29.671875 C-34.69380244 23.80285722 -34.34630749 17.91456748 -34 12 C-35.65 12.66 -37.3 13.32 -39 14 C-41.12758042 11.70221314 -42.01532597 10.62836483 -41.9375 7.4375 C-40.8033326 4.48866475 -39.69635676 3.58609221 -37 2 C-34.22158448 1.07386149 -32.31571241 0.82711283 -29.4296875 0.71875 C-28.5325 0.68136719 -27.6353125 0.64398438 -26.7109375 0.60546875 C-25.77507812 0.57066406 -24.83921875 0.53585938 -23.875 0.5 C-17.85993459 0.27061191 -11.93907619 -0.03423671 -5.97705078 -0.89648438 C-3.7910035 -1.01094277 -2.08664286 -0.62803573 0 0 Z " fill="#FAF8FE" transform="translate(162,190)"/>
<path d="M0 0 C2.19921875 1.5390625 2.19921875 1.5390625 3.19921875 2.5390625 C3.57421875 4.8515625 3.57421875 4.8515625 3.19921875 7.5390625 C0.88671875 9.8515625 0.88671875 9.8515625 -1.80078125 11.5390625 C-2.79078125 11.5390625 -3.78078125 11.5390625 -4.80078125 11.5390625 C-5.08953125 10.7346875 -5.37828125 9.9303125 -5.67578125 9.1015625 C-6.53340693 6.4064157 -6.53340693 6.4064157 -8.80078125 5.5390625 C-11.80078125 5.2890625 -11.80078125 5.2890625 -14.80078125 5.5390625 C-17.15051943 7.43661394 -17.15051943 7.43661394 -16.92578125 10.6640625 C-16.88453125 11.6128125 -16.84328125 12.5615625 -16.80078125 13.5390625 C-16.26710938 13.69761719 -15.7334375 13.85617188 -15.18359375 14.01953125 C1.37444724 19.20466173 1.37444724 19.20466173 5.19921875 25.5390625 C5.72005075 29.55690932 5.45844537 31.9499111 3.82421875 35.6640625 C-0.93358475 40.87499015 -5.92983125 43.47767595 -13.0234375 43.91796875 C-23.96548195 44.19468316 -23.96548195 44.19468316 -29.0703125 42.37109375 C-31.71688952 41.25459626 -31.71688952 41.25459626 -33.890625 42.3671875 C-34.50035156 42.83640625 -35.11007812 43.305625 -35.73828125 43.7890625 C-42.29539489 48.33813756 -48.94631975 49.35723557 -56.80078125 48.5390625 C-60.41693242 47.62837737 -63.12025947 46.57463913 -65.23828125 43.3515625 C-65.51671875 42.454375 -65.51671875 42.454375 -65.80078125 41.5390625 C-66.46078125 41.5390625 -67.12078125 41.5390625 -67.80078125 41.5390625 C-68.00703125 42.0959375 -68.21328125 42.6528125 -68.42578125 43.2265625 C-71.0336521 47.61252712 -74.4266798 49.98413692 -79.05078125 51.8515625 C-86.16739598 53.1562752 -92.56801991 53.7425527 -98.80078125 49.5390625 C-103.29056976 45.66151788 -105.43580062 42.47043324 -106.171875 36.55859375 C-106.35203012 27.85816143 -105.06151737 21.3159448 -99.15625 14.6953125 C-92.75164273 8.79671258 -86.29890591 6.96376489 -77.68359375 7.1796875 C-73.45336208 7.70703345 -71.1842502 8.96468395 -67.80078125 11.5390625 C-65.30622208 15.28090125 -65.42471603 17.10149286 -65.80078125 21.5390625 C-67.42864899 26.85676378 -70.48922068 29.29068561 -75.0390625 32.1484375 C-80.05073984 34.6719978 -85.39030829 36.11745446 -90.80078125 37.5390625 C-88.16839098 40.61232407 -88.16839098 40.61232407 -84.50390625 42.0703125 C-77.38898055 41.9796765 -72.90367885 40.11752893 -66.9609375 36.3828125 C-63.02864741 33.97353192 -60.41813184 33.08858927 -55.80078125 33.5390625 C-55.30578125 36.5090625 -55.30578125 36.5090625 -54.80078125 39.5390625 C-53.52203125 39.7453125 -52.24328125 39.9515625 -50.92578125 40.1640625 C-50.20648438 40.28007812 -49.4871875 40.39609375 -48.74609375 40.515625 C-47.78316406 40.52722656 -47.78316406 40.52722656 -46.80078125 40.5390625 C-44.45104307 38.64151106 -44.45104307 38.64151106 -44.67578125 35.4140625 C-44.71703125 34.4653125 -44.75828125 33.5165625 -44.80078125 32.5390625 C-45.38085938 32.35730469 -45.9609375 32.17554688 -46.55859375 31.98828125 C-54.17772832 29.53657953 -60.21999303 27.5449739 -64.80078125 20.5390625 C-65.50464959 17.0197208 -65.50715863 14.89485134 -63.83203125 11.6796875 C-59.76547177 6.14727518 -54.36212982 3.99907119 -47.80078125 2.5390625 C-42.72073171 1.95315901 -38.44841677 1.79930778 -33.73828125 3.9140625 C-31.80078125 5.5390625 -31.80078125 5.5390625 -29.80078125 7.5390625 C-29.38828125 7.14074219 -28.97578125 6.74242187 -28.55078125 6.33203125 C-20.99036269 -0.60397774 -9.91810986 -5.17346316 0 0 Z " fill="#FAF8FE" transform="translate(382.80078125,180.4609375)"/>
<path d="M0 0 C6.75048026 0 8.51015739 0.14528184 14 3 C15.3308911 5.66178221 15.11268993 7.68739396 15.09765625 10.6640625 C15.09443359 11.78554688 15.09121094 12.90703125 15.08789062 14.0625 C15.07532227 15.8259375 15.07532227 15.8259375 15.0625 17.625 C15.05798828 18.80835938 15.05347656 19.99171875 15.04882812 21.2109375 C15.03701467 24.14067507 15.02054258 27.07031272 15 30 C15.56847656 28.93394531 16.13695312 27.86789062 16.72265625 26.76953125 C18.58171226 23.52170397 20.58781508 21.15195888 23.4375 18.6875 C24.17871094 18.03136719 24.91992188 17.37523437 25.68359375 16.69921875 C30.18815837 13.39485853 33.95817317 12.70692229 39.5 12.6875 C40.6034375 12.67074219 41.706875 12.65398437 42.84375 12.63671875 C47.8468032 13.21256522 50.30318304 15.2545679 53.6875 18.875 C58.01945335 24.72899101 58.9846905 29.80337902 58 37 C55.56359053 44.84145378 50.72757732 50.41601349 44 55 C38.41383101 57.86050378 32.22712406 59.05743616 26 58 C20.43297334 55.16396755 16.95703103 51.53613223 14.75 45.6875 C14.5025 44.800625 14.255 43.91375 14 43 C13.97274659 44.7290774 13.95349013 46.45828176 13.9375 48.1875 C13.92589844 49.15042969 13.91429687 50.11335938 13.90234375 51.10546875 C13.99513378 53.85576513 14.37888315 56.32479591 15 59 C10.90025508 61.73316328 7.79720051 61.93012308 3 61 C-2.61242861 57.0510159 -5.95279924 51.21142472 -9.0625 45.25 C-9.48515137 44.46447754 -9.90780273 43.67895508 -10.34326172 42.86962891 C-11.18293877 41.30738682 -12.01773199 39.74250805 -12.84716797 38.17480469 C-14.41070057 35.22521799 -16.01764536 32.30091742 -17.625 29.375 C-18.41743949 27.91708646 -19.20946824 26.45894885 -20 25 C-22.33184791 37.99172405 -22.21258186 50.83791236 -22 64 C-25.85659437 66.1059035 -28.5700217 66.55374729 -33 66 C-36.15126765 63.10620715 -36.948016 61.46642529 -37.42578125 57.1796875 C-37.40863164 55.74439736 -37.37033174 54.30922711 -37.3125 52.875 C-37.30283203 52.17890625 -37.29316406 51.4828125 -37.28320312 50.765625 C-37.19971082 46.77251462 -36.89443697 42.8352756 -36.484375 38.86328125 C-35.82869184 32.01410685 -35.89117089 25.18702727 -35.9375 18.3125 C-35.94201172 17.02666016 -35.94652344 15.74082031 -35.95117188 14.41601562 C-35.96283999 11.27729347 -35.97920985 8.13867272 -36 5 C-34.57443982 4.96092028 -33.14856604 4.93318479 -31.72265625 4.91015625 C-30.53168335 4.88514038 -30.53168335 4.88514038 -29.31665039 4.85961914 C-23.71120345 5.19928949 -19.9661218 8.76876371 -16.1875 12.5625 C-11.07861424 18.52453957 -2 30.866554 -2 39 C-1.34 39 -0.68 39 0 39 C0 26.13 0 13.26 0 0 Z " fill="#FBF9FE" transform="translate(214,262)"/>
<path d="M0 0 C1.1034375 -0.01675781 2.206875 -0.03351563 3.34375 -0.05078125 C8.3468032 0.52506522 10.80318304 2.5670679 14.1875 6.1875 C18.51945335 12.04149101 19.4846905 17.11587902 18.5 24.3125 C16.06359053 32.15395378 11.22757732 37.72851349 4.5 42.3125 C-1.08616899 45.17300378 -7.27287594 46.36993616 -13.5 45.3125 C-18.83063951 42.59689119 -22.31253287 39.06242387 -24.6875 33.5625 C-27.46511628 22.45203488 -27.46511628 22.45203488 -24.5 17.3125 C-23.7265625 15.70375 -23.7265625 15.70375 -22.9375 14.0625 C-17.89875163 5.29204701 -10.05475495 0.03523863 0 0 Z " fill="#FAF8FE" transform="translate(253.5,274.6875)"/>
<path d="M0 0 C3.64641635 3.45942064 5.36899941 5.49723434 5.5625 10.625 C3.69584387 16.74348399 0.23141753 20.61648555 -5.2265625 23.9296875 C-10.49138009 26.49682996 -14.71227617 27.96252487 -20.5625 27.3125 C-18.26989718 30.47471079 -16.93635545 32.05635746 -13.02734375 32.78515625 C-6.64123191 32.9871928 -2.76659462 31.96643877 2.4375 28.3125 C3.0975 27.9825 3.7575 27.6525 4.4375 27.3125 C4.19544912 32.27454304 2.65926766 35.21005016 -0.63671875 38.765625 C-6.11922671 43.1694245 -13.48595866 43.84999921 -20.30859375 43.59375 C-25.28283039 42.97304803 -27.90735027 40.99742927 -31.3125 37.4375 C-35.73736787 31.29185019 -36.51031685 25.74537949 -35.5625 18.3125 C-32.7911999 9.4314499 -27.13253789 4.03694567 -19.3125 -0.625 C-12.71884106 -2.49320337 -6.27783332 -2.97371052 0 0 Z " fill="#F9F7FE" transform="translate(346.5625,265.6875)"/>
<path d="M0 0 C8.83870968 0 8.83870968 0 13 3 C14.56938332 6.92345831 15 9.77042332 15 14 C15.66 13.67 16.32 13.34 17 13 C18.99960012 12.960008 21.00047242 12.95653201 23 13 C23 14.98 23 16.96 23 19 C20.04335481 20.4783226 17.25770263 20.06032783 14 20 C13.33226533 25.94999286 12.886533 31.88802794 12.75 37.875 C12.72421875 38.92429687 12.6984375 39.97359375 12.671875 41.0546875 C13.05384579 44.48333003 13.81946655 46.33165146 16 49 C18.04285061 49.60024521 18.04285061 49.60024521 20.1875 49.3125 C22.0746875 49.1578125 22.0746875 49.1578125 24 49 C23.06600348 52.73598609 22.06145556 53.95359478 18.9375 56.3125 C14.70399173 58.46453337 10.65281591 58.98978084 6 58 C2.16316345 55.93463905 -0.41973544 53.05529079 -2 49 C-2.87829554 39.93289017 -1.49919223 30.92822515 0 22 C-3.96 22.495 -3.96 22.495 -8 23 C-8.25 20.6875 -8.25 20.6875 -8 18 C-6.3125 16.1875 -6.3125 16.1875 -4 15 C-2.35 15 -0.7 15 1 15 C0.67 10.05 0.34 5.1 0 0 Z " fill="#FAF8FE" transform="translate(282,258)"/>
<path d="M0 0 C3 1.5 3 1.5 5 4 C5.64163284 7.97812363 5.98521413 10.38968449 3.8671875 13.8515625 C2.5 15.5 2.5 15.5 0 18 C-3 17 -3 17 -4.375 14.9375 C-5.86327158 12.76528728 -5.86327158 12.76528728 -8.5 12.4375 C-11.18870996 12.76899298 -11.18870996 12.76899298 -12.75 15.1875 C-14.99465582 20.2379756 -15.1361442 24.88090723 -15.125 30.375 C-15.12757813 31.64085937 -15.13015625 32.90671875 -15.1328125 34.2109375 C-15.00316698 37.90964792 -14.59347312 41.35437943 -14 45 C-17.64957865 47.33573034 -20.73910491 47.45652447 -25 47 C-27.36497439 45.13291495 -28.66030715 43.67938569 -30 41 C-30.09861981 38.19803709 -30.13896076 35.42645953 -30.125 32.625 C-30.12886719 31.85671875 -30.13273438 31.0884375 -30.13671875 30.296875 C-30.13542969 29.55179688 -30.13414062 28.80671875 -30.1328125 28.0390625 C-30.13168457 27.36053223 -30.13055664 26.68200195 -30.12939453 25.98291016 C-29.99228904 23.88183323 -29.51976609 22.03688764 -29 20 C-28.86070644 18.63323368 -28.75634699 17.2625433 -28.68359375 15.890625 C-28.62075195 14.75947266 -28.62075195 14.75947266 -28.55664062 13.60546875 C-28.51732422 12.82816406 -28.47800781 12.05085937 -28.4375 11.25 C-28.39431641 10.45722656 -28.35113281 9.66445312 -28.30664062 8.84765625 C-28.20097009 6.89862185 -28.10002034 4.94933252 -28 3 C-21.43296699 2.7810989 -18.47876512 3.34748992 -13 7 C-12.731875 6.401875 -12.46375 5.80375 -12.1875 5.1875 C-9.26460351 -0.19678302 -6.06301099 -1.02622949 0 0 Z " fill="#FBF9FE" transform="translate(273,192)"/>
<path d="M0 0 C2.7245501 2.70949734 3.89847934 4.420282 4.56640625 8.234375 C4.55653557 17.1179855 3.42160135 23.57839865 -3 30 C-6.625 30.125 -6.625 30.125 -10 30 C-13.99611931 24.17232601 -13.76097382 17.85712672 -13 11 C-11.7701601 6.93837491 -10.0033487 4.03571478 -7.0625 1 C-4.38492363 -0.29821884 -2.93578371 -0.58715674 0 0 Z " fill="#611CEB" transform="translate(224,205)"/>
<path d="M0 0 C2.9375 0.5625 2.9375 0.5625 4.59765625 2.703125 C7.46680431 8.82620482 6.85425123 16.79141948 4.6875 23.125 C1.95425978 28.49386472 1.95425978 28.49386472 -1.0625 30.5625 C-4.125 31.0625 -4.125 31.0625 -7.0625 30.5625 C-10.61277669 27.01222331 -11.24448112 23.245415 -11.375 18.375 C-11.31219472 11.59203008 -9.18022864 7.38613818 -5.1875 2.0625 C-3.0625 0.5625 -3.0625 0.5625 0 0 Z " fill="#611CEB" transform="translate(252.0625,281.4375)"/>
<path d="M0 0 C2.68636205 0.06825602 3.78157595 0.12814359 6.0625 1.625 C7.0625 3.3125 7.0625 3.3125 7.0625 6.3125 C10.0344385 5.18798273 12.39690687 4.08956209 15.0625 2.3125 C15.43375 3.55 15.805 4.7875 16.1875 6.0625 C17.88366643 10.50223516 19.75263752 12.11838819 24.0625 14.3125 C26.65583408 15.38807635 29.25463609 16.41628323 31.890625 17.3828125 C34.0625 18.3125 34.0625 18.3125 36.0625 20.3125 C36.3125 22.8125 36.3125 22.8125 36.0625 25.3125 C34.0625 27.3125 34.0625 27.3125 30.625 27.6875 C27.0625 27.3125 27.0625 27.3125 25.125 25.5 C24.0625 23.3125 24.0625 23.3125 24.0625 20.3125 C22.845625 20.60125 21.62875 20.89 20.375 21.1875 C18.30078125 21.6796875 18.30078125 21.6796875 16.0625 21.3125 C14.85708471 19.84378581 13.65666731 18.36997839 12.50610352 16.85791016 C9.98761609 14.16181251 6.80115652 13.232245 3.375 12.0625 C-3.73653418 9.51346582 -3.73653418 9.51346582 -5.9375 7.3125 C-6.1875 4.8125 -6.1875 4.8125 -5.9375 2.3125 C-3.9375 0.3125 -3.9375 0.3125 0 0 Z " fill="#631EEB" transform="translate(336.9375,189.6875)"/>
<path d="M0 0 C2.8125 0.6875 2.8125 0.6875 4.75 2.375 C5.8125 4.6875 5.8125 4.6875 5.875 7.125 C4.37775673 10.73599848 2.15356695 12.8038532 -1.1875 14.6875 C-4.15597949 15.62542349 -7.11070434 16.22939931 -10.1875 16.6875 C-10.15966041 10.54887043 -9.21812421 6.43459954 -4.875 1.9453125 C-3.1875 0.6875 -3.1875 0.6875 0 0 Z " fill="#6521EB" transform="translate(300.1875,194.3125)"/>
<path d="M0 0 C1.8125 1.125 1.8125 1.125 3 3 C3.5625 5.875 3.5625 5.875 3 9 C-1.33227625 13.88769628 -5.66144627 15.05625978 -12 16 C-12.50045898 9.86937754 -11.38442544 6.93159136 -8 2 C-4.76746204 -0.15502531 -3.74849077 -0.46856135 0 0 Z " fill="#6420EB" transform="translate(337,271)"/>
<path d="M0 0 C0.33 0 0.66 0 1 0 C1.02720824 2.68756955 1.0469388 5.37485798 1.0625 8.0625 C1.07087891 8.81466797 1.07925781 9.56683594 1.08789062 10.34179688 C1.10808341 15.00633118 0.77595959 19.39923173 0 24 C-1.15224028 23.07038578 -2.29659176 22.1309875 -3.4375 21.1875 C-4.07558594 20.66542969 -4.71367187 20.14335937 -5.37109375 19.60546875 C-7 18 -7 18 -8 15 C-6.7711083 12.34175909 -5.49812607 9.85391409 -4.0625 7.3125 C-3.48338867 6.2596582 -3.48338867 6.2596582 -2.89257812 5.18554688 C-1.93738227 3.45204328 -0.96984614 1.72534991 0 0 Z " fill="#611CEB" transform="translate(196,212)"/>
<path d="M0 0 C0.66 0 1.32 0 2 0 C3.48046875 1.50390625 3.48046875 1.50390625 5.1875 3.5625 C11.04648143 10.40396911 17.16421396 16.07488892 24.38134766 21.44873047 C27.49515284 23.77732332 30.32872381 26.17273688 33 29 C23.53560426 27.59954049 14.25094542 16.52980231 7.75 10.0625 C7.09410889 9.41200684 6.43821777 8.76151367 5.76245117 8.09130859 C1.12909004 3.38727011 1.12909004 3.38727011 0 0 Z " fill="#EDECEE" transform="translate(114,387)"/>
<path d="M0 0 C3.98282556 1.32760852 5.52760104 3.93968669 7.9375 7.1875 C8.36740234 7.75275391 8.79730469 8.31800781 9.24023438 8.90039062 C10.51316232 10.58668212 11.75936349 12.28985315 13 14 C13.61512451 14.82105225 13.61512451 14.82105225 14.24267578 15.65869141 C15.37890625 17.23828125 15.37890625 17.23828125 17 20 C16.67 20.99 16.34 21.98 16 23 C15.34773438 22.07058594 14.69546875 21.14117187 14.0234375 20.18359375 C8.48297318 12.24762034 8.48297318 12.24762034 2.375 4.75 C0 2 0 2 0 0 Z " fill="#F0F0F1" transform="translate(399,126)"/>
<path d="M0 0 C0.33 0 0.66 0 1 0 C1.33 5.28 1.66 10.56 2 16 C1.01 15.67 0.02 15.34 -1 15 C-0.67 10.05 -0.34 5.1 0 0 Z " fill="#7A3FEE" transform="translate(241,213)"/>
</svg>
